<svg width="40" height="15" viewBox="0 0 40 15" fill="none" xmlns="http://www.w3.org/2000/svg">
<path d="M19.0986 0C18.2028 0 17.1257 0.396667 16.4383 0.826297C16.4327 0.830149 16.4272 0.834149 16.4218 0.838294L10.8161 4.77632L2.69114 5.91604C2.68411 5.91685 2.67711 5.91785 2.67014 5.91904C1.73341 6.10639 0.880725 6.84593 0.680134 7.74859L0.0772822 9.86007C-0.072961 10.3108 -2.07722e-05 10.7833 0.260237 11.1258C0.520495 11.4682 0.952667 11.6701 1.43895 11.6701H6.53919C6.61 12.2958 6.84524 12.9046 7.27551 13.3887C7.79376 13.9717 8.58719 14.3575 9.57894 14.3575C10.5707 14.3575 11.3626 13.9717 11.8809 13.3887C12.3111 12.9047 12.546 12.2958 12.6172 11.6701H28.3453C28.4165 12.2958 28.6514 12.9047 29.0816 13.3887C29.5999 13.9717 30.3918 14.3575 31.3836 14.3575C32.3753 14.3575 33.1688 13.9717 33.687 13.3887C34.1173 12.9046 34.3525 12.2958 34.4233 11.6701H38.0644C39.037 11.6701 39.8295 10.8776 39.8295 9.90506V6.52639L39.822 6.60138C39.9239 6.09199 39.7748 5.58676 39.5296 5.16323C39.4932 5.10047 39.4516 5.04268 39.4111 4.98327C39.3941 4.94642 39.3713 4.91251 39.3436 4.8828C39.1352 4.60318 38.88 4.37262 38.5953 4.21846C38.5917 4.21605 38.5884 4.21335 38.5848 4.21096C38.5713 4.20209 38.5573 4.19408 38.5428 4.18697L38.5413 4.18547L38.4078 4.11949L33.4756 1.65259C33.4342 1.63227 33.3895 1.61958 33.3436 1.6151L31.4001 0.653839C31.3956 0.651753 31.3911 0.649753 31.3866 0.647841C30.6377 0.315021 29.4899 0 28.6198 0H19.0986ZM19.0986 0.767811H28.6198C29.2852 0.767811 30.4415 1.06826 31.0747 1.34967L31.6055 1.6121H30.2319C30.1626 1.6123 30.0947 1.63121 30.0353 1.66685C29.976 1.70248 29.9273 1.75351 29.8946 1.81453C29.8619 1.87554 29.8463 1.94428 29.8494 2.01345C29.8525 2.08262 29.8743 2.14966 29.9124 2.20746L31.9849 5.35518C32.02 5.40826 32.0676 5.4518 32.1236 5.4819C32.1796 5.512 32.2423 5.52772 32.3059 5.52764H38.8487C38.853 5.53483 38.8595 5.53989 38.8637 5.54713C39.0408 5.85302 39.1209 6.19299 39.0692 6.45141C39.0642 6.4761 39.0617 6.50121 39.0617 6.52639V6.75734H36.8362V7.52515H39.0617V9.90506C39.0617 10.4681 38.6275 10.9023 38.0644 10.9023H34.4233C34.3525 10.2767 34.1173 9.66779 33.687 9.18374C33.1688 8.60071 32.3753 8.21498 31.3836 8.21498C31.3704 8.21498 31.3592 8.21784 31.3461 8.21798C31.3327 8.21781 31.3205 8.21498 31.3071 8.21498C31.0974 8.21498 30.8945 8.24119 30.6967 8.28246C30.6472 8.2923 30.604 8.31103 30.5558 8.32295C30.4257 8.35695 30.296 8.39231 30.1734 8.44292C30.0209 8.50242 29.8823 8.57713 29.7475 8.65737C29.7443 8.65935 29.7402 8.65987 29.737 8.66187C29.4906 8.80981 29.2637 8.97894 29.0816 9.18374C28.9187 9.36705 28.7919 9.57206 28.6812 9.78509C28.6408 9.85857 28.6094 9.93733 28.5748 10.0145C28.5464 10.0822 28.5143 10.1476 28.4908 10.217C28.4105 10.4357 28.3449 10.6617 28.3138 10.9023H23.0921V5.52764H30.2319C30.301 5.52754 30.3688 5.50877 30.4282 5.47332C30.4875 5.43787 30.5362 5.38705 30.5691 5.32623C30.6019 5.26541 30.6178 5.19684 30.6149 5.12777C30.612 5.05869 30.5906 4.99167 30.5528 4.93379L28.4803 1.78456C28.4453 1.73149 28.3976 1.68794 28.3416 1.65784C28.2856 1.62774 28.223 1.61202 28.1594 1.6121H18.1778C18.0983 1.61205 18.0208 1.63668 17.9559 1.68259L13.5035 4.83031C13.4371 4.87732 13.3873 4.94422 13.3614 5.02134C13.3354 5.09847 13.3347 5.18184 13.3592 5.25943C13.3837 5.33702 13.4323 5.4048 13.4978 5.45301C13.5634 5.50121 13.6426 5.52735 13.7239 5.52764H22.3243V10.9023H12.6172C12.546 10.2767 12.3111 9.66778 11.8809 9.18374C11.4671 8.71824 10.8724 8.38852 10.1473 8.27046C9.9635 8.23405 9.77347 8.21498 9.57894 8.21498C9.38344 8.21498 9.19277 8.23449 9.00758 8.27046C8.28341 8.38895 7.68874 8.71886 7.27551 9.18374C6.84524 9.66779 6.61 10.2767 6.53919 10.9023H1.43895C1.15742 10.9023 0.976539 10.7983 0.872087 10.6609C0.767634 10.5234 0.726003 10.3433 0.806103 10.103C0.807725 10.0975 0.809225 10.092 0.810602 10.0865L1.14802 8.90631H3.6659V8.1385H1.36846L1.42545 7.93755C1.42717 7.93009 1.42867 7.92259 1.42995 7.91505C1.5363 7.43645 2.21893 6.79468 2.81711 6.67336L11.0141 5.52464C11.074 5.51607 11.131 5.49346 11.1805 5.45866L16.8462 1.47714C17.3872 1.13896 18.4588 0.767811 19.0986 0.767811ZM18.2993 2.37991H22.3243V4.75983H14.9326L18.2993 2.37991ZM23.0921 2.37991H27.9524L29.5195 4.75983H23.0921V2.37991ZM30.9457 2.37991H33.1576L37.9685 4.75983H32.5128L30.9457 2.37991ZM19.3295 6.75734V7.52515H20.7122V6.75734H19.3295ZM28.1594 6.75734V7.52515H29.542V6.75734H28.1594ZM9.57894 8.98279C10.8223 8.98279 11.8824 10.0429 11.8824 11.2862C11.8824 11.8727 11.684 12.4541 11.3065 12.8788C10.929 13.3036 10.3787 13.5897 9.57894 13.5897C8.77914 13.5897 8.2274 13.3036 7.84987 12.8788C7.47234 12.4541 7.27551 11.8727 7.27551 11.2862C7.27551 11.1199 7.29243 10.9588 7.3235 10.8048C7.54102 9.7271 8.47926 8.98279 9.57894 8.98279ZM31.3431 8.98579C32.6549 9.00507 33.6105 10.0412 33.6105 11.2862C33.6106 11.359 33.6314 11.4303 33.6705 11.4917C33.6298 12.0063 33.4458 12.5041 33.1127 12.8788C32.7351 13.3036 32.1834 13.5897 31.3836 13.5897C30.5838 13.5897 30.0335 13.3036 29.656 12.8788C29.2785 12.4541 29.0801 11.8727 29.0801 11.2862C29.0801 10.6997 29.2785 10.1183 29.656 9.69361C29.8184 9.51087 30.0204 9.36189 30.2529 9.24222C30.2975 9.21964 30.3385 9.19145 30.3848 9.17174C30.6544 9.05743 30.9723 8.99065 31.3431 8.98579ZM9.57894 9.90506C9.15025 9.90506 8.77942 10.0796 8.5427 10.346C8.30598 10.6123 8.19628 10.9514 8.19628 11.2862C8.19628 11.6211 8.30598 11.9617 8.5427 12.228C8.77942 12.4943 9.15025 12.6689 9.57894 12.6689C10.0076 12.6689 10.377 12.4943 10.6137 12.228C10.8504 11.9617 10.9601 11.6211 10.9601 11.2862C10.9601 10.9514 10.8504 10.6123 10.6137 10.346C10.377 10.0796 10.0076 9.90506 9.57894 9.90506ZM31.3836 9.90506C30.9549 9.90506 30.5856 10.0796 30.3488 10.346C30.1121 10.6123 30.0024 10.9514 30.0024 11.2862C30.0024 11.6211 30.1121 11.9617 30.3488 12.228C30.5856 12.4943 30.9549 12.6689 31.3836 12.6689C31.8123 12.6689 32.1831 12.4943 32.4198 12.228C32.6565 11.9617 32.7662 11.6211 32.7662 11.2862C32.7662 10.9514 32.6565 10.6123 32.4198 10.346C32.1831 10.0796 31.8123 9.90506 31.3836 9.90506ZM9.57894 10.6729C9.81569 10.6729 9.94333 10.7478 10.0393 10.8558C10.1353 10.9638 10.1923 11.122 10.1923 11.2862C10.1923 11.4504 10.1353 11.6101 10.0393 11.7181C9.94333 11.8261 9.81569 11.9011 9.57894 11.9011C9.3422 11.9011 9.21306 11.8261 9.11706 11.7181C9.02106 11.6101 8.9641 11.4504 8.9641 11.2862C8.9641 11.122 9.02106 10.9638 9.11706 10.8558C9.21306 10.7478 9.3422 10.6729 9.57894 10.6729ZM31.3836 10.6729C31.6203 10.6729 31.7495 10.7478 31.8455 10.8558C31.9415 10.9638 31.9984 11.122 31.9984 11.2862C31.9984 11.4504 31.9415 11.6101 31.8455 11.7181C31.7495 11.8261 31.6203 11.9011 31.3836 11.9011C31.1468 11.9011 31.0192 11.8261 30.9232 11.7181C30.8272 11.6101 30.7702 11.4504 30.7702 11.2862C30.7702 11.122 30.8272 10.9638 30.9232 10.8558C31.0192 10.7478 31.1468 10.6729 31.3836 10.6729Z" fill="#143D9C"/>
</svg>
